<svg xmlns="http://www.w3.org/2000/svg" viewBox="0 0 160 160">
  <defs>
    <linearGradient x1="100%" y1="0%" x2="0%" y2="100%" id="a">
      <stop stop-color="#EC4899" offset="0%"/>
      <stop stop-color="#E03F5E" offset="100%"/>
    </linearGradient>
    <linearGradient x1="100%" y1="0%" x2="0%" y2="100%" id="b">
      <stop stop-color="#D946EF" offset="0%"/>
      <stop stop-color="#9333EA" offset="100%"/>
    </linearGradient>
    <linearGradient x1="100%" y1="0%" x2="0%" y2="100%" id="c">
      <stop stop-color="#4ADE80" offset="0%"/>
      <stop stop-color="#06B6D4" offset="100%"/>
    </linearGradient>
    <linearGradient x1="100%" y1="0%" x2="0%" y2="100%" id="d">
      <stop stop-color="#FACC15" offset="0%"/>
      <stop stop-color="#F97316" offset="100%"/>
    </linearGradient>
  </defs>
  <g stroke-width="5" fill="none" fill-rule="evenodd">
    <path d="m62.702 2.501 1.093.008 1.045.016.996.024.951.032.906.04.864.046.822.055.782.062.74.068 1.058.119.646.085.936.144.574.102.552.11.54.118.964.245.701.208 1.057.366.754.304c5.66 2.946 8.66 5.857 10.677 9.617l.594 1.174c.795 1.905.87 2.095.92 2.242l.483 1.638.232 1.01.11.552.103.58.096.603.134.983.079.686.073.725.065.76.085 1.225.047.86.04.906.031.95.024.997.016 1.045.008 1.093v29.404l-.008 1.093-.016 1.045-.024.996-.032.951-.04.906-.046.864-.055.822-.062.782-.068.74-.119 1.058-.085.646-.144.936-.102.574-.11.552-.118.54-.245.964-.208.701-.366 1.057-.304.754c-2.946 5.66-5.857 8.66-9.617 10.677l-1.174.594c-1.905.795-2.095.87-2.242.92l-1.638.483-1.01.232-.552.11-.58.103-.603.096-.983.134-.686.079-.725.073-.76.065-1.225.085-.86.047-.906.04-.95.031-.997.024-1.045.016-1.093.008H33.298l-1.093-.008-1.045-.016-.996-.024-.951-.032-.906-.04-.864-.046-.822-.055-.782-.062-.74-.068-1.058-.119-.646-.085-.936-.144-.574-.102-.552-.11-.54-.118-.964-.245-.701-.208-1.057-.366-.754-.304c-5.66-2.946-8.66-5.857-10.677-9.617l-.594-1.174c-.795-1.905-.87-2.095-.92-2.242l-.483-1.638-.232-1.01-.11-.552-.103-.58-.096-.603-.134-.983-.079-.686-.073-.725-.065-.76-.085-1.225-.047-.86-.04-.906-.031-.95-.024-.997-.016-1.045-.008-1.093V32.299l.008-1.093.016-1.045.024-.996.032-.951.04-.906.046-.864.055-.822.062-.782.068-.74.119-1.058.085-.646.144-.936.102-.574.11-.552.118-.54.245-.964.208-.701.366-1.057.304-.754c2.946-5.66 5.857-8.66 9.617-10.677l1.174-.594c1.905-.795 2.095-.87 2.242-.92l1.638-.483 1.01-.232.552-.11.58-.103.603-.096.983-.134.686-.079.725-.073.76-.065 1.225-.085.86-.047.906-.04.95-.031.997-.024 1.045-.016 1.093-.008h29.404Z" stroke="url(#a)" opacity=".96"/>
    <path d="M124.5 68.5a8.97 8.97 0 0 1 6.28 2.554 8.971 8.971 0 0 1 2.716 6.186c.011 3.921 1.512 7.4 3.924 9.939a13.834 13.834 0 0 0 9.72 4.316c2.676.003 5.003.999 6.677 2.632a8.858 8.858 0 0 1 2.683 6.373v23a8.97 8.97 0 0 1-2.554 6.28 8.971 8.971 0 0 1-6.186 2.716c-3.921.011-7.4 1.512-9.939 3.924a13.834 13.834 0 0 0-4.316 9.72c-.003 2.676-.999 5.003-2.632 6.677a8.858 8.858 0 0 1-6.373 2.683h-23a8.97 8.97 0 0 1-6.28-2.554 8.971 8.971 0 0 1-2.716-6.186c-.011-3.921-1.512-7.4-3.924-9.939a13.834 13.834 0 0 0-9.72-4.316c-2.676-.003-5.003-.999-6.677-2.632A8.858 8.858 0 0 1 69.5 123.5v-23a8.97 8.97 0 0 1 2.554-6.28 8.971 8.971 0 0 1 6.186-2.716c3.921-.011 7.4-1.512 9.939-3.924a13.834 13.834 0 0 0 4.316-9.72c.003-2.676.999-5.003 2.632-6.677A8.858 8.858 0 0 1 101.5 68.5Z" stroke="url(#b)" opacity=".96"/>
    <circle stroke="url(#c)" opacity=".96" cx="49" cy="111" r="46.5"/>
    <path d="M112.97 2.5c5.021 0 10.363 2.998 15.557 7.583 6.225 5.495 12.194 13.338 17.09 21.893 9.347 16.334 15.175 35.525 10.108 45.496-2.235 4.395-7.55 7.59-14.247 9.886-8.084 2.772-18.252 4.142-28.42 4.142-10.168 0-20.344-1.37-28.442-4.142-6.715-2.299-12.05-5.497-14.308-9.896-5.114-9.96.679-29.122 9.998-45.442 4.89-8.563 10.862-16.418 17.09-21.921 5.2-4.594 10.549-7.599 15.575-7.599Z" stroke="url(#d)" opacity=".96"/>
  </g>
</svg>
